<svg width="58" height="58" viewBox="0 0 58 58" fill="none" xmlns="http://www.w3.org/2000/svg">
<rect x="0.413491" y="0.573607" width="49" height="49" rx="24.5" transform="matrix(-0.160116 0.987098 0.987098 0.160116 7.9193 0.487181)" fill="black" stroke="#A144FE"/>
<path d="M34.6293 36.1373C34.5409 36.6825 34.0273 37.0527 33.4821 36.9643L24.5982 35.5233C24.0531 35.4348 23.6828 34.9212 23.7713 34.376C23.8597 33.8309 24.3733 33.4606 24.9185 33.5491L32.8153 34.83L34.0962 26.9332C34.1846 26.388 34.6983 26.0178 35.2434 26.1062C35.7886 26.1946 36.1588 26.7083 36.0704 27.2534L34.6293 36.1373ZM22.8757 19.3314L34.4535 35.3924L32.831 36.562L21.2533 20.501L22.8757 19.3314Z" fill="white"/>
</svg>
