<svg width="8" height="7" viewBox="0 0 8 7" fill="none" xmlns="http://www.w3.org/2000/svg">
<path d="M7.99986 1.48155C8.00246 1.36332 7.96819 1.24721 7.90175 1.14937C7.83531 1.05152 7.73999 0.976816 7.62913 0.935625C7.51827 0.894435 7.39734 0.888809 7.28314 0.91953C7.16893 0.950252 7.06718 1.01579 6.99195 1.10704L4.00921 4.58875L1.02753 1.10704C0.98114 1.04392 0.922241 0.991058 0.854472 0.951764C0.786702 0.91247 0.711528 0.887592 0.633699 0.878688C0.555869 0.869783 0.477056 0.877045 0.402163 0.900017C0.32727 0.92299 0.257904 0.961178 0.198453 1.01219C0.139002 1.0632 0.0907779 1.12594 0.0566964 1.19648C0.0226154 1.26701 0.00347374 1.34383 0.000453448 1.4221C-0.00256732 1.50038 0.0105633 1.57844 0.0391082 1.65139C0.0676531 1.72435 0.110952 1.79062 0.166295 1.84606L3.57692 5.8323C3.63034 5.8949 3.69665 5.94517 3.77138 5.97964C3.84611 6.01411 3.92744 6.03195 4.00974 6.03195C4.09203 6.03195 4.17337 6.01411 4.2481 5.97964C4.32283 5.94517 4.3892 5.8949 4.44262 5.8323L7.85653 1.84606C7.94597 1.74536 7.99669 1.6162 7.99986 1.48155Z" fill="white"/>
</svg>
