<svg width="8" height="6" viewBox="0 0 8 6" fill="none" xmlns="http://www.w3.org/2000/svg">
<path d="M7.99986 0.606553C8.00246 0.488315 7.96819 0.372205 7.90175 0.274365C7.83531 0.176525 7.73999 0.101816 7.62913 0.0606252C7.51827 0.0194346 7.39734 0.013809 7.28314 0.0445304C7.16893 0.0752518 7.06718 0.140793 6.99195 0.232044L4.00921 3.71375L1.02753 0.232043C0.98114 0.168921 0.922241 0.116058 0.854472 0.0767638C0.786702 0.0374698 0.711528 0.0125919 0.633699 0.00368764C0.555869 -0.0052166 0.477056 0.00204489 0.402163 0.0250173C0.32727 0.0479897 0.257904 0.0861778 0.198453 0.137191C0.139002 0.188204 0.0907779 0.250942 0.0566964 0.321478C0.0226154 0.392013 0.00347374 0.468825 0.000453448 0.547104C-0.00256732 0.625383 0.0105633 0.703443 0.0391082 0.776394C0.0676531 0.849346 0.110952 0.915618 0.166295 0.97106L3.57692 4.9573C3.63034 5.0199 3.69665 5.07017 3.77138 5.10464C3.84611 5.13911 3.92744 5.15695 4.00974 5.15695C4.09203 5.15695 4.17337 5.13911 4.2481 5.10464C4.32283 5.07017 4.3892 5.0199 4.44262 4.9573L7.85653 0.97106C7.94597 0.870362 7.99669 0.741202 7.99986 0.606553Z" fill="black"/>
</svg>
