<svg width="27" height="28" viewBox="0 0 27 28" fill="none" xmlns="http://www.w3.org/2000/svg">
<path fill-rule="evenodd" clip-rule="evenodd" d="M13.508 1.5207C12.8822 1.52922 12.3806 2.04376 12.3922 2.66948V17.9711L7.56165 13.1405C7.44348 13.0174 7.29887 12.9227 7.13876 12.8636C6.97864 12.8045 6.80719 12.7826 6.63735 12.7994C6.42358 12.8207 6.22034 12.9025 6.05157 13.0354C5.88279 13.1684 5.75553 13.3467 5.68476 13.5496C5.61399 13.7524 5.60267 13.9712 5.65213 14.1803C5.70159 14.3893 5.80977 14.5799 5.96393 14.7295L12.7268 21.4923C12.9379 21.7022 13.2235 21.82 13.5212 21.82C13.8189 21.82 14.1045 21.7022 14.3157 21.4923L21.0763 14.7295C21.1943 14.6284 21.29 14.5041 21.3577 14.3643C21.4253 14.2245 21.4633 14.0722 21.4693 13.9171C21.4752 13.7619 21.4491 13.6071 21.3924 13.4625C21.3358 13.3179 21.2498 13.1866 21.14 13.0768C21.0302 12.967 20.8989 12.8811 20.7543 12.8244C20.6097 12.7678 20.455 12.7416 20.2998 12.7476C20.1446 12.7536 19.9923 12.7916 19.8525 12.8592C19.7127 12.9268 19.5884 13.0226 19.4874 13.1405L14.648 17.9821V2.66948C14.6598 2.03396 14.1436 1.51346 13.508 1.5207ZM2.2381 19.5535C2.08994 19.5549 1.94353 19.5856 1.80723 19.6437C1.67094 19.7018 1.54744 19.7862 1.44381 19.8921C1.34017 19.9979 1.25843 20.1232 1.20327 20.2607C1.14811 20.3982 1.1206 20.5453 1.12233 20.6934V25.2027C1.12176 25.3514 1.15063 25.4988 1.20728 25.6363C1.26393 25.7738 1.34723 25.8987 1.45238 26.0038C1.55753 26.109 1.68246 26.1923 1.81995 26.2489C1.95745 26.3056 2.1048 26.3345 2.2535 26.3339H24.7867C24.9354 26.3345 25.0828 26.3056 25.2203 26.2489C25.3578 26.1923 25.4827 26.109 25.5879 26.0038C25.693 25.8987 25.7763 25.7738 25.833 25.6363C25.8896 25.4988 25.9185 25.3514 25.9179 25.2027V20.6934C25.9114 20.3989 25.7898 20.1187 25.5792 19.9127C25.3686 19.7067 25.0857 19.5914 24.7911 19.5914C24.4966 19.5914 24.2137 19.7067 24.0031 19.9127C23.7925 20.1187 23.6709 20.3989 23.6644 20.6934V24.0803H3.37587V20.6934C3.37762 20.5434 3.34941 20.3946 3.29287 20.2556C3.23634 20.1167 3.15264 19.9904 3.04666 19.8842C2.94069 19.778 2.81458 19.6941 2.67574 19.6373C2.53689 19.5805 2.3881 19.552 2.2381 19.5535Z" fill="white"/>
</svg>
