<svg width="119" height="119" viewBox="0 0 119 119" fill="none" xmlns="http://www.w3.org/2000/svg">
<path d="M99.7705 63.6444C99.8228 63.1438 99.9528 62.7016 100.16 62.3177C100.371 61.9376 100.644 61.6326 100.98 61.4029C101.315 61.1765 101.699 61.0457 102.132 61.0105L102.178 61.7694C101.702 61.8403 101.311 62.0542 101.005 62.411C100.703 62.7682 100.524 63.2137 100.469 63.7475C100.432 64.0989 100.454 64.4196 100.534 64.7095C100.618 64.9997 100.754 65.2352 100.943 65.4158C101.132 65.5964 101.367 65.7014 101.649 65.7309C101.835 65.7503 101.995 65.7336 102.132 65.6808C102.271 65.6283 102.39 65.5519 102.487 65.4515C102.585 65.3511 102.669 65.2392 102.739 65.1158C102.812 64.9927 102.873 64.8717 102.922 64.7529L103.654 62.9944C103.74 62.7822 103.841 62.5882 103.956 62.4126C104.075 62.2374 104.21 62.0872 104.36 61.9622C104.514 61.8408 104.687 61.7517 104.881 61.6948C105.074 61.638 105.291 61.622 105.529 61.6469C105.934 61.6892 106.272 61.8318 106.545 62.0748C106.818 62.3178 107.015 62.6317 107.136 63.0163C107.256 63.4009 107.29 63.8284 107.238 64.2988C107.188 64.7762 107.059 65.1934 106.851 65.5504C106.642 65.9107 106.368 66.197 106.027 66.4095C105.69 66.6222 105.303 66.7461 104.867 66.7809L104.808 66.0006C105.125 65.9834 105.407 65.8972 105.654 65.7421C105.902 65.587 106.101 65.3766 106.253 65.1109C106.408 64.8489 106.504 64.5523 106.542 64.2211C106.576 63.8996 106.551 63.6071 106.468 63.3437C106.388 63.0839 106.263 62.8714 106.092 62.7062C105.922 62.5409 105.717 62.4458 105.479 62.4209C105.237 62.3956 105.036 62.4416 104.876 62.559C104.716 62.6797 104.584 62.8335 104.481 63.0204C104.377 63.2107 104.289 63.3959 104.217 63.576L103.657 64.9353C103.602 65.077 103.527 65.2416 103.43 65.4293C103.336 65.6206 103.21 65.8018 103.051 65.9729C102.896 66.1477 102.7 66.2848 102.465 66.3842C102.23 66.4837 101.942 66.5156 101.601 66.4799C101.269 66.4453 100.979 66.348 100.731 66.188C100.483 66.0313 100.282 65.8243 100.128 65.5669C99.9732 65.3128 99.8662 65.0218 99.8067 64.6938C99.7434 64.3688 99.7314 64.019 99.7705 63.6444Z" fill="white"/>
<path d="M97.7639 72.608C97.9979 71.9306 98.3451 71.4105 98.8055 71.0476C99.2691 70.6858 99.8084 70.4772 100.424 70.4217C101.039 70.3662 101.695 70.4587 102.391 70.6993C103.087 70.9398 103.66 71.2718 104.11 71.6952C104.56 72.1186 104.853 72.6152 104.992 73.1849C105.133 73.7557 105.087 74.3798 104.853 75.0571C104.579 75.8479 104.153 76.4236 103.574 76.7841C102.997 77.1457 102.337 77.3019 101.592 77.2527L101.653 76.4801C102.241 76.5213 102.758 76.4089 103.203 76.1428C103.647 75.8768 103.975 75.4381 104.186 74.8269C104.37 74.2945 104.402 73.8099 104.281 73.3732C104.161 72.9365 103.914 72.5533 103.541 72.2235C103.17 71.8979 102.703 71.634 102.138 71.4318C101.572 71.2327 101.042 71.1468 100.55 71.1741C100.056 71.2046 99.6249 71.3554 99.2562 71.6265C98.8895 71.9018 98.6142 72.3057 98.4302 72.8382C98.219 73.4494 98.2062 73.9969 98.3917 74.4807C98.5804 74.9655 98.9175 75.3729 99.403 75.7029L98.9738 76.3481C98.3575 75.9271 97.9327 75.3959 97.6993 74.7546C97.4691 74.1143 97.4906 73.3988 97.7639 72.608Z" fill="white"/>
<path d="M95.2135 78.902L101.316 82.7224L99.8412 85.0787C99.8041 85.1381 99.7597 85.2027 99.708 85.2726C99.6575 85.3471 99.6012 85.4181 99.5393 85.4856C99.2915 85.7748 99.0109 85.9747 98.6978 86.0854C98.3857 86.2008 98.0629 86.2327 97.7294 86.1812C97.3942 86.1326 97.0669 86.0083 96.7476 85.8084C96.2871 85.5201 95.9633 85.1484 95.7764 84.6932C95.5895 84.2379 95.5937 83.7569 95.7891 83.25L95.8735 83.002L97.1417 80.9762L94.8235 79.525L95.2135 78.902ZM92.9 82.5976L96.137 82.9487L95.9918 83.6895L92.4516 83.3138L92.9 82.5976ZM97.735 81.3476L96.6605 83.064C96.6287 83.1149 96.5944 83.176 96.5576 83.2473C96.5208 83.3187 96.4891 83.3913 96.4626 83.4651C96.3769 83.7025 96.3561 83.9274 96.4001 84.1398C96.4423 84.355 96.5307 84.5499 96.6652 84.7245C96.7979 84.902 96.9589 85.05 97.1482 85.1685C97.3375 85.287 97.541 85.3672 97.7586 85.409C97.9773 85.4555 98.1926 85.4507 98.4047 85.3946C98.615 85.3414 98.8081 85.2245 98.9842 85.0437C99.039 84.9875 99.0891 84.9264 99.1343 84.8604C99.1824 84.7961 99.2224 84.7386 99.2543 84.6877L100.329 82.9713L97.735 81.3476Z" fill="white"/>
<path d="M87.994 88.1514C88.5008 87.6447 89.0405 87.3288 89.6133 87.2039C90.1884 87.0814 90.7647 87.1297 91.3421 87.3489C91.9196 87.5681 92.4688 87.9381 92.9897 88.459C93.5106 88.9799 93.8807 89.5291 94.0999 90.1066C94.3191 90.6841 94.3662 91.2592 94.2413 91.8319C94.1187 92.407 93.8041 92.948 93.2973 93.4547C92.7882 93.9639 92.2472 94.2785 91.6745 94.3987C91.1017 94.5237 90.5266 94.4765 89.9491 94.2573C89.3693 94.0405 88.819 93.6716 88.2981 93.1507C87.7772 92.6298 87.4083 92.0794 87.1914 91.4996C86.9722 90.9221 86.9239 90.3458 87.0465 89.7707C87.169 89.2003 87.4849 88.6606 87.994 88.1514ZM88.4925 88.6499C88.0942 89.0483 87.8526 89.4714 87.7677 89.9192C87.6829 90.367 87.7359 90.8184 87.9268 91.2733C88.1177 91.7329 88.4253 92.1749 88.8496 92.5991C89.2739 93.0234 89.7146 93.3298 90.1719 93.5184C90.6268 93.7093 91.0782 93.7623 91.526 93.6775C91.9738 93.5926 92.3981 93.3522 92.7988 92.9562C93.1971 92.5579 93.4375 92.136 93.52 91.6905C93.6025 91.245 93.5483 90.7925 93.3574 90.3329C93.1665 89.878 92.8601 89.4372 92.4382 89.0106C92.0163 88.584 91.5779 88.2752 91.1229 88.0843C90.668 87.8981 90.2155 87.8462 89.7653 87.9287C89.3175 88.0136 88.8932 88.254 88.4925 88.6499Z" fill="white"/>
<path d="M83.8719 92.0197L87.8697 98.0078L87.2584 98.4159L83.6521 93.0141L80.8077 94.913L80.4163 94.3267L83.8719 92.0197Z" fill="white"/>
<path d="M78.638 95.3789L81.6879 101.901L81.0221 102.212L78.2709 96.3288L75.1729 97.7775L74.8742 97.1389L78.638 95.3789Z" fill="white"/>
<path d="M64.7208 99.9154L65.2481 107.096L63.0689 107.256C62.9925 107.262 62.8627 107.27 62.6796 107.28C62.4932 107.29 62.3144 107.29 62.1431 107.279C61.5923 107.242 61.122 107.073 60.7321 106.771C60.3423 106.469 60.0373 106.07 59.8171 105.575C59.5969 105.079 59.4643 104.526 59.4194 103.914C59.3745 103.303 59.4248 102.736 59.5703 102.214C59.7158 101.692 59.9593 101.253 60.3008 100.897C60.6423 100.541 61.0829 100.304 61.6225 100.188C61.7872 100.156 61.9641 100.129 62.1531 100.109C62.3423 100.092 62.4719 100.081 62.5417 100.075L64.7208 99.9154ZM64.0145 100.674L62.5933 100.778C62.457 100.788 62.311 100.803 62.1552 100.821C61.9964 100.842 61.8613 100.869 61.75 100.901C61.3365 101.004 61.0115 101.199 60.7751 101.484C60.5353 101.769 60.3702 102.115 60.2798 102.523C60.1897 102.934 60.1622 103.378 60.1973 103.857C60.2327 104.339 60.325 104.777 60.4742 105.17C60.6234 105.564 60.8373 105.882 61.1159 106.126C61.3945 106.37 61.7443 106.513 62.1652 106.555C62.2799 106.57 62.419 106.575 62.5824 106.57C62.7427 106.568 62.8876 106.562 63.0173 106.553L64.4385 106.449L64.0145 100.674Z" fill="white"/>
<path d="M52.6482 99.5437C53.356 99.6563 53.9286 99.9078 54.366 100.298C54.8029 100.692 55.1022 101.187 55.2638 101.783C55.4254 102.379 55.4483 103.041 55.3325 103.768C55.2167 104.496 54.9894 105.118 54.6507 105.634C54.312 106.151 53.8741 106.527 53.3371 106.762C52.7996 107 52.177 107.063 51.4692 106.95C50.7582 106.837 50.1859 106.584 49.7523 106.191C49.3148 105.801 49.0153 105.308 48.8537 104.711C48.6888 104.115 48.6642 103.453 48.78 102.725C48.8958 101.998 49.1247 101.376 49.4668 100.86C49.8055 100.343 50.2436 99.9659 50.7811 99.7274C51.3148 99.4917 51.9372 99.4305 52.6482 99.5437ZM52.5374 100.24C51.9811 100.151 51.4967 100.204 51.0844 100.398C50.6721 100.593 50.3378 100.901 50.0817 101.322C49.8218 101.747 49.6446 102.255 49.5503 102.848C49.456 103.44 49.4668 103.977 49.5826 104.458C49.6952 104.938 49.9173 105.335 50.2489 105.647C50.5805 105.96 51.0243 106.162 51.5801 106.254C52.1364 106.343 52.6191 106.29 53.0281 106.095C53.4372 105.9 53.7717 105.59 54.0316 105.166C54.2877 104.744 54.4646 104.238 54.5622 103.646C54.6598 103.054 54.6524 102.517 54.5398 102.037C54.4234 101.559 54.1997 101.163 53.8686 100.847C53.5369 100.534 53.0932 100.332 52.5374 100.24Z" fill="white"/>
<path d="M44.1858 97.4557L43.0753 104.867L42.3799 104.549L43.3264 98.4422L39.3278 103.143L38.6258 102.827L39.5723 96.7207L35.5716 101.426L34.8717 101.105L39.7591 95.4257L40.4318 95.7341L39.5156 101.81L43.5132 97.1472L44.1858 97.4557Z" fill="white"/>
<path d="M35.1674 92.5627L30.5794 98.1117L30.0091 97.6402L30.7129 90.5665L26.9533 95.1136L26.383 94.6421L30.9709 89.0931L31.5413 89.5646L30.8343 96.6421L34.597 92.0912L35.1674 92.5627Z" fill="white"/>
<path d="M18.419 56.5434C18.3879 57.0457 18.2768 57.4931 18.0855 57.8854C17.8912 58.2741 17.6312 58.5903 17.3055 58.834C16.9801 59.0744 16.602 59.2214 16.1712 59.2749L16.0927 58.5186C16.5659 58.4276 16.9475 58.1974 17.2375 57.8279C17.5242 57.4582 17.6841 57.0056 17.7172 56.4699C17.739 56.1173 17.7036 55.7978 17.6111 55.5116C17.5152 55.2251 17.3691 54.9956 17.1727 54.8232C16.9763 54.6508 16.7367 54.5558 16.4539 54.5383C16.2676 54.5268 16.1075 54.5503 15.9737 54.6088C15.8365 54.6671 15.7212 54.7485 15.6279 54.853C15.5346 54.9574 15.4557 55.0728 15.3911 55.199C15.3232 55.3251 15.2672 55.4485 15.223 55.5693L14.5664 57.3572C14.4896 57.5729 14.3972 57.7709 14.2892 57.9513C14.1779 58.1314 14.0497 58.2871 13.9047 58.4184C13.7565 58.5462 13.5869 58.6426 13.3959 58.7076C13.2048 58.7726 12.9895 58.7977 12.75 58.7829C12.3441 58.7578 11.9997 58.6297 11.7168 58.3984C11.4338 58.1672 11.2239 57.862 11.087 57.4828C10.9502 57.1037 10.898 56.678 10.9305 56.2057C10.9601 55.7267 11.0714 55.3044 11.2643 54.9389C11.4574 54.5701 11.7196 54.2724 12.0509 54.0457C12.3789 53.8189 12.7599 53.6788 13.194 53.6255L13.2863 54.4026C12.9704 54.4332 12.6922 54.5312 12.4515 54.6967C12.2109 54.8622 12.0203 55.0808 11.88 55.3527C11.7365 55.621 11.6528 55.9214 11.6289 56.2539C11.6089 56.5766 11.6461 56.8678 11.7402 57.1274C11.8313 57.3836 11.9654 57.5906 12.1427 57.7485C12.3199 57.9064 12.5283 57.9927 12.7679 58.0075C13.0107 58.0225 13.2095 57.968 13.3641 57.844C13.5189 57.7166 13.644 57.5574 13.7393 57.3662C13.8348 57.1718 13.9149 56.983 13.9797 56.8L14.4809 55.4183C14.5298 55.2744 14.5987 55.1066 14.6873 54.915C14.7728 54.72 14.8912 54.5336 15.0425 54.3559C15.1906 54.1747 15.3799 54.0294 15.6105 53.9201C15.841 53.8108 16.1276 53.7667 16.4702 53.7879C16.8029 53.8085 17.0966 53.8934 17.3512 54.0427C17.606 54.1887 17.8158 54.387 17.9807 54.6377C18.1458 54.885 18.265 55.1713 18.3384 55.4964C18.4154 55.8184 18.4422 56.1674 18.419 56.5434Z" fill="white"/>
<path d="M20.0033 47.6216C19.8002 48.3089 19.4768 48.8442 19.0333 49.2276C18.5866 49.61 18.0573 49.8428 17.4452 49.9261C16.8332 50.0094 16.1739 49.9466 15.4675 49.7378C14.761 49.529 14.1736 49.2233 13.7052 48.8207C13.2367 48.4181 12.9206 47.9354 12.7567 47.3725C12.5897 46.8087 12.6077 46.1832 12.8108 45.4959C13.048 44.6935 13.4478 44.0992 14.0104 43.7128C14.5698 43.3254 15.2226 43.1395 15.9688 43.155L15.9433 43.9295C15.3532 43.915 14.8421 44.0507 14.41 44.3366C13.9779 44.6225 13.6702 45.0756 13.4869 45.6957C13.3273 46.2359 13.3176 46.7215 13.4579 47.1522C13.5982 47.583 13.8621 47.9547 14.2493 48.2673C14.6344 48.5757 15.1136 48.8182 15.6871 48.9946C16.2616 49.1679 16.7942 49.2297 17.2851 49.1801C17.7769 49.1273 18.2008 48.9572 18.5569 48.6697C18.9108 48.378 19.1675 47.962 19.3272 47.4218C19.5105 46.8017 19.4985 46.2541 19.2913 45.7793C19.0808 45.3034 18.7256 44.9117 18.2257 44.6041L18.6252 43.9401C19.26 44.3327 19.7084 44.8442 19.9706 45.4743C20.2295 46.1035 20.2404 46.8193 20.0033 47.6216Z" fill="white"/>
<path d="M22.2322 41.258L15.9667 37.7107L17.3363 35.2915C17.3708 35.2306 17.4123 35.1641 17.4608 35.0919C17.5081 35.0153 17.5611 34.9419 17.6199 34.8718C17.8548 34.5719 18.1262 34.3597 18.4342 34.2353C18.7409 34.1063 19.0619 34.0602 19.3974 34.0969C19.7345 34.1307 20.0669 34.2404 20.3947 34.426C20.8675 34.6936 21.2074 35.0508 21.4142 35.4973C21.6211 35.9438 21.6381 36.4246 21.4652 36.9396L21.3918 37.1911L20.2143 39.2709L22.5943 40.6184L22.2322 41.258ZM24.3803 37.4638L21.131 37.256L21.2433 36.5095L24.7966 36.7285L24.3803 37.4638ZM19.6052 38.926L20.6028 37.1638C20.6324 37.1116 20.664 37.0491 20.6976 36.9762C20.7312 36.9033 20.7596 36.8294 20.7829 36.7544C20.858 36.5135 20.8689 36.2879 20.8156 36.0777C20.7639 35.8645 20.667 35.6737 20.5249 35.5052C20.3845 35.3337 20.2171 35.193 20.0227 35.083C19.8284 34.9729 19.6216 34.9018 19.4023 34.8696C19.1818 34.8329 18.9669 34.8472 18.7575 34.9125C18.5498 34.9749 18.362 35.1003 18.194 35.2887C18.1418 35.3472 18.0945 35.4105 18.0521 35.4784C18.0069 35.5448 17.9695 35.604 17.94 35.6562L16.9423 37.4184L19.6052 38.926Z" fill="white"/>
<path d="M28.9893 31.7131C28.5051 32.2415 27.9796 32.5806 27.4129 32.7303C26.8436 32.8779 26.2658 32.8547 25.6793 32.6609C25.0928 32.4671 24.528 32.1213 23.9849 31.6236C23.4418 31.1259 23.0482 30.5934 22.804 30.026C22.5598 29.4586 22.4877 28.8861 22.5875 28.3085C22.6849 27.7286 22.9757 27.1744 23.4599 26.646C23.9463 26.1152 24.473 25.7773 25.04 25.6322C25.6067 25.4824 26.1834 25.5045 26.7698 25.6983C27.3586 25.8897 27.9245 26.2342 28.4676 26.7319C29.0107 27.2296 29.4032 27.7634 29.6451 28.3332C29.8893 28.9005 29.9627 29.4742 29.8653 30.0541C29.7677 30.6293 29.4757 31.1823 28.9893 31.7131ZM28.4695 31.2368C28.8501 30.8215 29.073 30.3883 29.1383 29.9372C29.2035 29.4861 29.1309 29.0374 28.9203 28.5913C28.7095 28.1404 28.383 27.7123 27.9406 27.307C27.4983 26.9016 27.0446 26.6147 26.5795 26.4462C26.1167 26.2753 25.6635 26.242 25.2198 26.3463C24.7761 26.4506 24.3627 26.7093 23.9796 27.1224C23.599 27.5377 23.3772 27.9697 23.3142 28.4183C23.2512 28.867 23.3251 29.3167 23.5359 29.7676C23.7465 30.2137 24.0718 30.6407 24.5119 31.0485C24.952 31.4564 25.4034 31.7457 25.8662 31.9166C26.3288 32.0828 26.7832 32.1149 27.2294 32.0129C27.6731 31.9086 28.0865 31.6499 28.4695 31.2368Z" fill="white"/>
<path d="M32.9264 27.6379L28.6697 21.8309L29.2625 21.3963L33.1024 26.6347L35.8607 24.6128L36.2775 25.1814L32.9264 27.6379Z" fill="white"/>
<path d="M37.9242 24.0712L34.5871 17.6912L35.2384 17.3505L38.2487 23.1058L41.2792 21.5207L41.6059 22.1454L37.9242 24.0712Z" fill="white"/>
<path d="M51.6252 18.8334L50.7945 11.6814L52.9649 11.4294C53.0411 11.4205 53.1704 11.4072 53.3529 11.3893C53.5387 11.3711 53.7174 11.3638 53.8889 11.3673C54.4408 11.3804 54.9179 11.5297 55.3202 11.8152C55.7224 12.1007 56.0441 12.4862 56.285 12.9716C56.526 13.4571 56.6818 14.0044 56.7526 14.6136C56.8233 15.2229 56.7971 15.7914 56.6738 16.3191C56.5506 16.8469 56.3258 17.2958 55.9997 17.6659C55.6736 18.036 55.2434 18.2906 54.7092 18.4299C54.546 18.469 54.3704 18.5028 54.1824 18.5313C53.9941 18.5565 53.8651 18.5732 53.7956 18.5813L51.6252 18.8334ZM52.2988 18.0454L53.7143 17.881C53.85 17.8652 53.9953 17.845 54.1502 17.8203C54.3079 17.7919 54.4418 17.7596 54.5517 17.7233C54.9604 17.602 55.2769 17.3941 55.501 17.0996C55.7285 16.8047 55.8788 16.4517 55.9519 16.0405C56.0245 15.6261 56.0332 15.1804 55.9778 14.7036C55.922 14.2235 55.8113 13.7901 55.6455 13.4033C55.4798 13.0165 55.2526 12.7073 54.964 12.4757C54.6753 12.2441 54.3198 12.116 53.8975 12.0912C53.7822 12.0811 53.6431 12.0821 53.4801 12.0944C53.32 12.1029 53.1754 12.1147 53.0462 12.1297L51.6308 12.2941L52.2988 18.0454Z" fill="white"/>
<path d="M63.9307 18.6615C63.2188 18.5788 62.6361 18.3517 62.1826 17.9803C61.7295 17.6055 61.4096 17.1237 61.2229 16.5349C61.0363 15.9461 60.9855 15.2858 61.0705 14.5541C61.1555 13.8223 61.3563 13.1913 61.6729 12.6609C61.9895 12.1306 62.4111 11.7366 62.9377 11.479C63.4647 11.218 64.0841 11.1289 64.796 11.2116C65.5112 11.2947 66.0937 11.5234 66.5435 11.8978C66.997 12.2693 67.3171 12.7494 67.5037 13.3382C67.6937 13.9274 67.7461 14.5878 67.6612 15.3196C67.5762 16.0513 67.3737 16.6822 67.0537 17.2121C66.7371 17.7425 66.3153 18.1381 65.7884 18.3991C65.2651 18.6571 64.6459 18.7446 63.9307 18.6615ZM64.012 17.9612C64.5716 18.0262 65.0533 17.953 65.457 17.7415C65.8608 17.53 66.1817 17.2082 66.4198 16.7761C66.6616 16.3411 66.8171 15.8256 66.8864 15.2296C66.9556 14.6336 66.9222 14.0978 66.7861 13.6223C66.6534 13.1471 66.4148 12.7604 66.0702 12.4619C65.7257 12.1635 65.2738 11.9802 64.7146 11.9119C64.1551 11.8469 63.6751 11.9203 63.2746 12.1322C62.8741 12.3441 62.553 12.6675 62.3112 13.1025C62.0731 13.5346 61.9178 14.0485 61.8453 14.6441C61.7727 15.2397 61.8028 15.7751 61.9356 16.2502C62.072 16.7224 62.3123 17.1094 62.6564 17.4111C63.001 17.7095 63.4528 17.8929 64.012 17.9612Z" fill="white"/>
<path d="M72.4088 20.3416L73.2144 12.8906L73.9222 13.1807L73.227 19.3207L77.0294 14.4595L77.7438 14.7468L77.0486 20.8868L80.8528 16.021L81.5653 16.3129L76.915 22.1884L76.2303 21.9077L76.8965 15.7991L73.0935 20.6223L72.4088 20.3416Z" fill="white"/>
<path d="M81.6607 24.8434L86.0017 19.0992L86.592 19.5453L86.1982 26.6429L89.7553 21.9359L90.3457 22.382L86.0048 28.1262L85.4144 27.6801L85.8113 20.5785L82.2511 25.2895L81.6607 24.8434Z" fill="white"/>
<circle cx="100" cy="41" r="2" fill="white"/>
<circle cx="19" cy="76" r="2" fill="white"/>
</svg>
