<svg width="166" height="49" viewBox="0 0 166 49" fill="none" xmlns="http://www.w3.org/2000/svg">
<g clip-path="url(#clip0_18_149)">
<path d="M78.331 35.8059L76.7076 31.9862H65.2798L63.6565 35.8059H58.3089L68.3044 13.5232H73.7162L83.7116 35.8059H78.331ZM74.829 27.5936L71.0093 18.5531L67.1566 27.5936H74.829Z" fill="white"/>
<path d="M90.1407 42.7456H85.524V20.1122H89.6302L89.9167 22.1175C91.1048 20.5896 92.8457 19.8257 95.1375 19.8257C97.4293 19.8257 99.3245 20.5731 100.757 22.0697C102.189 23.5664 102.905 25.535 102.905 27.9756C102.905 30.4161 102.184 32.4692 100.74 33.9438C99.2969 35.4184 97.4091 36.1567 95.0732 36.1567C92.9926 36.1567 91.3491 35.4148 90.1389 33.9291V42.7474L90.1407 42.7456ZM94.4379 32.0174C95.604 32.0174 96.5387 31.641 97.2383 30.8881C97.938 30.1351 98.2887 29.1637 98.2887 27.9756C98.2887 26.7874 97.9435 25.8435 97.2549 25.0796C96.5644 24.3156 95.626 23.9337 94.4379 23.9337C93.2497 23.9337 92.2728 24.2624 91.4464 24.9198C90.6182 25.5772 90.205 26.5964 90.205 27.9756C90.205 29.228 90.6292 30.2141 91.4776 30.9358C92.326 31.6575 93.3122 32.0174 94.4379 32.0174Z" fill="white"/>
<path d="M121.211 29.4391H109.654C109.781 30.2453 110.216 30.9082 110.96 31.4279C111.702 31.9476 112.69 32.2084 113.92 32.2084C115.681 32.2084 117.04 31.7952 117.995 30.967L120.573 33.8318C119.003 35.3817 116.754 36.1566 113.825 36.1566C110.896 36.1566 108.854 35.4037 107.315 33.896C105.776 32.3884 105.006 30.3518 105.006 27.7845C105.006 25.366 105.759 23.4084 107.267 21.9118C108.773 20.4151 110.8 19.6677 113.347 19.6677C116.127 19.6677 118.254 20.5161 119.73 22.2148C121.205 23.9134 121.699 26.3209 121.211 29.441V29.4391ZM109.654 26.0969H117.103C117.06 25.2907 116.678 24.67 115.957 24.2348C115.235 23.7996 114.365 23.5829 113.347 23.5829C112.434 23.5829 111.649 23.8051 110.991 24.2513C110.334 24.6976 109.887 25.3128 109.654 26.0969Z" fill="white"/>
<path d="M133.307 21.449L138.496 13.5232H143.939V13.7454L136.427 24.6003L144.066 35.6461V35.8059H138.559L133.307 27.9755L128.055 35.8059H122.547V35.6461L130.124 24.6003L122.643 13.7454V13.5232H128.086L133.307 21.449Z" fill="white"/>
<path d="M155.241 21.449L160.43 13.5232H165.873V13.7454L158.361 24.6003L166 35.6461V35.8059H160.493L155.241 27.9755L149.989 35.8059H144.481V35.6461L152.058 24.6003L144.577 13.7454V13.5232H150.02L155.241 21.449Z" fill="white"/>
<path d="M36.9499 28.3888C38.2537 26.4569 39.8183 24.0806 40.0019 23.8327C40.1488 23.6344 40.1948 23.4801 39.8936 23.3791C39.6971 23.313 39.5153 23.2065 39.3298 23.1092C39.2802 23.0835 39.2178 23.032 39.2086 22.9843C39.1902 22.8888 39.2894 22.8778 39.3537 22.8576C40.4335 22.4921 41.4967 22.0881 42.5527 21.6566C42.762 21.5703 42.7969 21.6639 42.8391 21.8384C43.0779 22.8227 43.3295 23.8033 43.5002 24.8023C43.5278 24.9602 43.6398 25.2633 43.559 25.3202C43.3331 25.4249 43.1734 25.1512 42.9934 25.0447C42.7455 24.896 42.6096 24.9235 42.4462 25.1825C41.6069 26.5083 39.4345 29.2647 38.5145 30.6861C38.4814 30.7357 36.8911 28.4806 36.9499 28.3925V28.3888Z" fill="white"/>
<path d="M24.2091 0C10.8604 0 0 10.8604 0 24.2072C0 29.6282 1.79048 34.6361 4.81316 38.6761C5.56241 37.6018 6.41449 36.3182 6.56875 36.0813C4.27694 32.6876 2.93822 28.5999 2.93822 24.2072C2.93822 12.4801 12.4801 2.93822 24.2091 2.93822C35.9381 2.93822 45.4799 12.4801 45.4799 24.2072C45.4799 28.6421 44.1155 32.7666 41.7833 36.1786C41.7888 36.1841 41.7961 36.1915 41.8016 36.1988C41.899 36.3806 41.9981 36.5606 42.0936 36.7424C42.2405 37.016 42.8998 37.7983 43.6252 38.6522C46.635 34.6177 48.4181 29.6172 48.4181 24.2072C48.4181 10.8604 37.5577 0 24.2091 0Z" fill="white"/>
<path d="M36.9498 28.3887C35.714 30.2453 34.4799 32.1 33.244 33.9566C32.9465 34.4029 32.649 34.8509 32.3258 35.3376C31.8869 34.7793 31.4701 34.2523 31.055 33.7252C28.9946 31.101 26.936 28.4787 24.8756 25.8545C24.815 25.7774 24.7544 25.7002 24.6883 25.6286C24.321 25.2411 23.9335 25.2411 23.5828 25.6415C22.7895 26.5431 22.0072 27.4558 21.212 28.3575C19.9706 29.7623 18.7201 31.1598 17.475 32.5646C17.3666 32.6877 17.3024 32.7079 17.1573 32.5848C16.4484 31.9807 15.7212 31.4004 15.0087 30.7999C14.7975 30.6236 14.6598 30.6328 14.467 30.8476C12.9226 32.5701 9.45365 36.871 8.2949 38.3052C8.07269 38.5806 7.93496 38.7496 7.91293 38.7753C7.6944 39.0287 7.00208 39.8239 6.37036 40.5566C5.81945 39.9561 5.29975 39.3299 4.81311 38.6761C5.56236 37.6018 6.41444 36.3182 6.56869 36.0813C6.58155 36.0611 6.59073 36.0483 6.59257 36.0446C8.7393 32.4159 10.8163 28.7468 12.8565 25.0575C13.5268 23.8473 14.2007 22.639 14.9132 21.3572C15.9765 23.3992 17.0104 25.3862 18.0847 27.4521C20.0037 22.9071 21.886 18.4538 23.7683 13.9988H23.8748C25.7718 18.4392 27.5824 22.9181 29.5621 27.4117C30.6694 25.3568 31.751 23.3533 32.8749 21.2709C33.6884 22.7032 34.4671 24.075 35.2457 25.445C35.3448 25.6084 35.4477 25.77 35.545 25.9353C36.0188 26.7488 36.4155 27.6082 36.9498 28.3887Z" fill="white"/>
<path d="M43.6252 38.6522C39.2068 44.5745 32.1477 48.4163 24.2091 48.4163C17.8184 48.4163 12.0008 45.9298 7.67058 41.8695C8.34637 41.1607 9.07909 40.3894 9.69427 39.7412C10.1809 39.2251 10.5923 38.7881 10.8383 38.5181C12.111 37.1207 13.3854 35.7268 14.647 34.3202C14.8251 34.12 14.9335 34.1402 15.1079 34.3C15.8039 34.9372 16.5164 35.5597 17.2069 36.2006C17.363 36.3457 17.4273 36.353 17.5742 36.1878C19.4381 34.0869 21.3131 31.9953 23.1825 29.9C23.4194 29.6337 23.6655 29.3748 23.8803 29.0938C24.053 28.8679 24.1595 28.9083 24.3156 29.1103C25.4633 30.5941 26.6239 32.0688 27.7735 33.5507C29.0222 35.1594 30.2655 36.7699 31.5087 38.3822C31.6281 38.5365 31.7291 38.7073 31.8484 38.8615C32.2579 39.3867 32.8474 39.3776 33.2239 38.8248C33.6371 38.2151 34.0282 37.5926 34.4267 36.9737C35.7434 34.9335 37.0582 32.8933 38.3749 30.8549C38.4153 30.7925 38.4667 30.7411 38.5145 30.6841C38.7587 31.0367 42.9677 37.723 43.6252 38.6522Z" fill="white"/>
</g>
<defs>
<clipPath id="clip0_18_149">
<rect width="166" height="48.4163" fill="white"/>
</clipPath>
</defs>
</svg>
