<svg width="229" height="67" viewBox="0 0 229 67" fill="none" xmlns="http://www.w3.org/2000/svg">
<path d="M108.059 49.3947L105.82 44.1253H90.0547L87.8153 49.3947H80.4382L94.2271 18.6553H101.693L115.482 49.3947H108.059ZM103.228 38.0656L97.9587 25.5941L92.6438 38.0656H103.228Z" fill="#151730"/>
<path d="M124.351 58.9683H117.982V27.7451H123.647L124.042 30.5114C125.681 28.4037 128.083 27.3499 131.244 27.3499C134.406 27.3499 137.02 28.3809 138.996 30.4456C140.972 32.5102 141.96 35.226 141.96 38.5928C141.96 41.9595 140.965 44.7918 138.973 46.8261C136.982 48.8603 134.378 49.8787 131.155 49.8787C128.285 49.8787 126.018 48.8553 124.348 46.8058V58.9708L124.351 58.9683ZM130.279 44.1686C131.888 44.1686 133.177 43.6493 134.142 42.6106C135.107 41.5719 135.591 40.2318 135.591 38.5928C135.591 36.9537 135.115 35.6516 134.165 34.5977C133.213 33.5438 131.918 33.0169 130.279 33.0169C128.64 33.0169 127.292 33.4704 126.152 34.3773C125.01 35.2842 124.44 36.6902 124.44 38.5928C124.44 40.3205 125.025 41.6809 126.195 42.6765C127.366 43.6721 128.726 44.1686 130.279 44.1686Z" fill="#151730"/>
<path d="M167.212 40.6117H151.27C151.445 41.7238 152.045 42.6383 153.071 43.3553C154.095 44.0722 155.458 44.4319 157.155 44.4319C159.584 44.4319 161.459 43.8619 162.776 42.7194L166.333 46.6714C164.167 48.8095 161.064 49.8786 157.023 49.8786C152.983 49.8786 150.165 48.8399 148.043 46.76C145.92 44.6802 144.858 41.8707 144.858 38.3291C144.858 34.9927 145.897 32.2922 147.977 30.2276C150.054 28.1629 152.851 27.1318 156.365 27.1318C160.2 27.1318 163.134 28.3022 165.17 30.6456C167.205 32.9889 167.886 36.3101 167.212 40.6142V40.6117ZM151.27 36.001H161.545C161.487 34.8889 160.96 34.0326 159.964 33.4322C158.969 32.8318 157.768 32.5329 156.365 32.5329C155.105 32.5329 154.021 32.8394 153.114 33.455C152.207 34.0706 151.592 34.9193 151.27 36.001Z" fill="#151730"/>
<path d="M183.899 29.5891L191.058 18.6553H198.567V18.9618L188.203 33.9363L198.742 49.1743V49.3947H191.144L183.899 38.5926L176.654 49.3947H169.056V49.1743L179.509 33.9363L169.188 18.9618V18.6553H176.697L183.899 29.5891Z" fill="#151730"/>
<path d="M214.157 29.5891L221.316 18.6553H228.825V18.9618L218.461 33.9363L229 49.1743V49.3947H221.403L214.157 38.5926L206.912 49.3947H199.314V49.1743L209.767 33.9363L199.446 18.9618V18.6553H206.955L214.157 29.5891Z" fill="#151730"/>
<path d="M50.9731 39.1627C52.7718 36.4976 54.9302 33.2195 55.1835 32.8775C55.3862 32.6039 55.4495 32.3911 55.0341 32.2518C54.763 32.1606 54.5122 32.0136 54.2563 31.8794C54.1879 31.8439 54.1018 31.773 54.0891 31.7071C54.0638 31.5754 54.2006 31.5602 54.2893 31.5323C55.7789 31.0282 57.2457 30.4708 58.7023 29.8755C58.9911 29.7564 59.0392 29.8856 59.0975 30.1263C59.4268 31.4842 59.7739 32.837 60.0095 34.2151C60.0475 34.4329 60.202 34.8509 60.0906 34.9295C59.779 35.0739 59.5586 34.6964 59.3103 34.5495C58.9683 34.3443 58.7808 34.3823 58.5554 34.7395C57.3977 36.5685 54.4007 40.3711 53.1315 42.3319C53.0859 42.4003 50.8921 39.2893 50.9731 39.1677V39.1627Z" fill="#4C4C91"/>
<path d="M33.3968 0C14.9821 0 0 14.9821 0 33.3943C0 40.8727 2.46999 47.7811 6.63985 53.3544C7.67344 51.8724 8.84891 50.1016 9.06171 49.7748C5.90012 45.0932 4.05332 39.454 4.05332 33.3943C4.05332 17.2165 17.2165 4.05332 33.3968 4.05332C49.5772 4.05332 62.7403 17.2165 62.7403 33.3943C62.7403 39.5123 60.8581 45.2021 57.6408 49.9091C57.6484 49.9167 57.6585 49.9268 57.6661 49.9369C57.8004 50.1877 57.9372 50.436 58.0689 50.6868C58.2716 51.0643 59.181 52.1435 60.1817 53.3214C64.3338 47.7557 66.7937 40.8575 66.7937 33.3943C66.7937 14.9821 51.8116 0 33.3968 0Z" fill="#4C4C91"/>
<path d="M50.9731 39.1627C49.2682 41.7239 47.5658 44.2825 45.8609 46.8437C45.4505 47.4593 45.0401 48.0774 44.5942 48.7488C43.9887 47.9786 43.4137 47.2516 42.8411 46.5245C39.9987 42.9044 37.1589 39.2868 34.3165 35.6667C34.2329 35.5603 34.1493 35.4539 34.0581 35.3551C33.5514 34.8205 33.0169 34.8205 32.533 35.3728C31.4386 36.6167 30.3594 37.8757 29.2625 39.1196C27.55 41.0576 25.8248 42.9855 24.1072 44.9234C23.9577 45.0932 23.869 45.121 23.6689 44.9513C22.691 44.1178 21.6879 43.3173 20.7049 42.4889C20.4136 42.2457 20.2236 42.2584 19.9576 42.5548C17.8271 44.931 13.0416 50.8641 11.4431 52.8426C11.1365 53.2226 10.9465 53.4557 10.9161 53.4911C10.6147 53.8408 9.65962 54.9377 8.78815 55.9485C8.02816 55.1201 7.31122 54.2562 6.63989 53.3544C7.67349 51.8724 8.84895 50.1016 9.06175 49.7748C9.07949 49.7469 9.09215 49.7292 9.09469 49.7241C12.0561 44.7182 14.9213 39.6567 17.7359 34.5672C18.6605 32.8977 19.5903 31.2308 20.5732 29.4626C22.04 32.2796 23.4662 35.0207 24.9482 37.8707C27.5956 31.6007 30.1922 25.4574 32.7889 19.3115H32.9358C35.5527 25.4371 38.0506 31.6159 40.7815 37.8149C42.3091 34.9801 43.8013 32.2163 45.3517 29.3435C46.4739 31.3195 47.548 33.2119 48.6222 35.1017C48.759 35.3272 48.9008 35.5501 49.0351 35.7781C49.6887 36.9004 50.2359 38.086 50.9731 39.1627Z" fill="#262B56"/>
<path d="M60.1818 53.3214C54.0866 61.4914 44.3485 66.7911 33.3969 66.7911C24.5809 66.7911 16.5554 63.361 10.5818 57.7598C11.5141 56.782 12.5248 55.718 13.3735 54.8237C14.0448 54.1118 14.6123 53.5089 14.9518 53.1365C16.7074 51.2087 18.4655 49.2859 20.2059 47.3453C20.4516 47.0692 20.6011 47.0971 20.8418 47.3175C21.8019 48.1965 22.7848 49.0553 23.7373 49.9395C23.9527 50.1396 24.0413 50.1497 24.244 49.9217C26.8153 47.0236 29.4019 44.1381 31.9808 41.2476C32.3076 40.8803 32.6471 40.5231 32.9435 40.1355C33.1816 39.8239 33.3285 39.8796 33.5439 40.1583C35.1272 42.2052 36.7282 44.2395 38.3141 46.2839C40.0368 48.5031 41.7518 50.7248 43.4669 52.949C43.6316 53.1618 43.7709 53.3974 43.9356 53.6102C44.5005 54.3348 45.3137 54.3221 45.833 53.5596C46.403 52.7185 46.9426 51.8597 47.4923 51.006C49.3087 48.1915 51.1226 45.3769 52.939 42.5649C52.9947 42.4788 53.0657 42.4079 53.1315 42.3293C53.4685 42.8157 59.2748 52.0396 60.1818 53.3214Z" fill="#262B56"/>
</svg>
