<svg width="214" height="214" viewBox="0 0 214 214" fill="none" xmlns="http://www.w3.org/2000/svg">
<path d="M176.197 118.667L188.875 126.944L188.09 129.85L172.967 130.608L173.534 128.513L187.343 127.783L187.202 128.304L175.63 120.762L176.197 118.667ZM178.7 121.861L180.592 122.373L178.628 129.632L176.736 129.12L178.7 121.861Z" fill="white"/>
<path d="M169.952 136.481C170.392 135.546 170.987 134.869 171.738 134.448C172.494 134.031 173.338 133.843 174.27 133.883C175.201 133.924 176.155 134.174 177.133 134.635C178.11 135.095 178.912 135.668 179.539 136.354C180.164 137.046 180.552 137.811 180.703 138.648C180.857 139.494 180.717 140.379 180.282 141.302C179.85 142.219 179.252 142.902 178.487 143.353C177.726 143.812 176.871 144.039 175.922 144.035C174.98 144.033 174.017 143.801 173.034 143.338C172.057 142.878 171.262 142.282 170.648 141.551C170.037 140.829 169.662 140.029 169.522 139.153C169.38 138.282 169.523 137.392 169.952 136.481ZM168.045 129.968L182.158 136.614L181.366 138.297L174.336 134.987L174.234 135.204L167.15 131.868L168.045 129.968ZM171.785 137.024C171.501 137.627 171.42 138.197 171.543 138.734C171.663 139.277 171.937 139.767 172.365 140.204C172.796 140.65 173.334 141.025 173.98 141.329C174.619 141.63 175.245 141.804 175.857 141.849C176.467 141.9 177.021 141.796 177.519 141.537C178.017 141.278 178.413 140.834 178.709 140.207C178.987 139.616 179.072 139.059 178.965 138.537C178.854 138.021 178.583 137.547 178.153 137.116C177.719 136.69 177.165 136.319 176.489 136.001C175.814 135.683 175.174 135.492 174.57 135.428C173.966 135.365 173.424 135.46 172.944 135.713C172.464 135.966 172.078 136.403 171.785 137.024Z" fill="white"/>
<path d="M164.225 146.423C164.833 145.538 165.559 144.893 166.405 144.486C167.251 144.09 168.149 143.942 169.098 144.044C170.049 144.155 170.984 144.526 171.901 145.156C172.874 145.824 173.593 146.585 174.058 147.438C174.52 148.297 174.721 149.187 174.662 150.109C174.603 151.031 174.276 151.926 173.679 152.794C173.056 153.701 172.315 154.328 171.454 154.675C170.598 155.026 169.675 155.091 168.685 154.872C167.692 154.659 166.684 154.153 165.664 153.355L166.847 151.632L167.473 152.063C168.514 152.761 169.414 153.088 170.173 153.043C170.928 153.003 171.573 152.593 172.109 151.813C172.701 150.95 172.875 150.115 172.629 149.307C172.383 148.499 171.746 147.743 170.719 147.037C169.74 146.365 168.833 146.061 167.996 146.126C167.165 146.194 166.468 146.637 165.906 147.456C165.536 147.994 165.338 148.542 165.312 149.098C165.287 149.664 165.428 150.213 165.733 150.746L164.037 152.068C163.477 151.174 163.22 150.225 163.263 149.22C163.312 148.218 163.633 147.286 164.225 146.423ZM170.617 146.142L171.961 147.065L167.596 153.421L166.252 152.498L170.617 146.142Z" fill="white"/>
<path d="M161.831 150.6L163.727 159.182L172.173 160.621L170.408 162.475L164.12 161.337L165.582 167.546L163.811 169.408L161.955 161.044L153.296 159.568L155.061 157.714L161.548 158.89L160.059 152.462L161.831 150.6Z" fill="white"/>
<path d="M153.698 159.215L154.135 167.994L162.222 170.822L160.172 172.356L154.162 170.184L154.568 176.55L152.51 178.09L152.077 169.533L143.786 166.633L145.836 165.099L152.035 167.341L151.64 160.755L153.698 159.215Z" fill="white"/>
<path d="M114.444 176.887L110.063 191.381L107.053 191.443L102.077 177.143L104.247 177.098L108.827 190.146L108.287 190.157L112.275 176.932L114.444 176.887ZM112.082 180.187L112.123 182.146L104.604 182.301L104.564 180.342L112.082 180.187Z" fill="white"/>
<path d="M95.7583 175.905C96.7797 176.061 97.5984 176.44 98.2145 177.04C98.8296 177.647 99.2498 178.403 99.4752 179.308C99.7006 180.213 99.7314 181.199 99.5675 182.266C99.4037 183.334 99.082 184.266 98.6023 185.062C98.116 185.857 97.4928 186.446 96.7327 186.829C95.9649 187.217 95.077 187.334 94.0688 187.179C93.0672 187.025 92.2419 186.646 91.5928 186.04C90.9362 185.44 90.4755 184.685 90.2105 183.774C89.9446 182.87 89.894 181.881 90.0588 180.807C90.2227 179.739 90.568 178.808 91.0948 178.012C91.614 177.221 92.274 176.635 93.0747 176.252C93.8688 175.868 94.7633 175.752 95.7583 175.905ZM101.462 172.227L99.096 187.647L97.2575 187.365L98.436 179.685L98.1988 179.648L99.3864 171.909L101.462 172.227ZM95.7583 177.817C95.0994 177.716 94.5299 177.8 94.0501 178.071C93.5636 178.34 93.1714 178.742 92.8736 179.276C92.5682 179.816 92.3614 180.439 92.2532 181.144C92.146 181.842 92.1576 182.491 92.2881 183.092C92.412 183.691 92.6689 184.192 93.0589 184.596C93.4488 185 93.9864 185.254 94.6717 185.359C95.3175 185.458 95.8755 185.382 96.3458 185.131C96.8095 184.878 97.1869 184.484 97.4782 183.949C97.7628 183.412 97.9618 182.775 98.075 182.037C98.1883 181.299 98.1895 180.632 98.0788 180.034C97.9681 179.437 97.7233 178.945 97.3446 178.556C96.9658 178.167 96.437 177.921 95.7583 177.817Z" fill="white"/>
<path d="M84.333 173.16C85.3538 173.492 86.1789 174.005 86.8082 174.7C87.4292 175.4 87.8255 176.219 87.9971 177.158C88.1603 178.101 88.0699 179.102 87.7259 180.161C87.3613 181.283 86.8359 182.189 86.1496 182.877C85.457 183.563 84.6603 184.009 83.7596 184.214C82.8588 184.419 81.9075 184.359 80.9057 184.033C79.8596 183.693 79.048 183.16 78.4712 182.433C77.8922 181.712 77.5673 180.846 77.4963 179.834C77.419 178.821 77.6182 177.711 78.0939 176.506L80.0816 177.152L79.8468 177.875C79.4722 179.071 79.4142 180.026 79.6726 180.741C79.9247 181.454 80.5009 181.957 81.4013 182.249C82.3967 182.572 83.2469 182.502 83.9517 182.037C84.6565 181.572 85.2015 180.746 85.5867 179.561C85.9534 178.432 85.9872 177.476 85.6882 176.692C85.3871 175.914 84.7642 175.372 83.8194 175.065C83.1981 174.863 82.617 174.828 82.0762 174.961C81.527 175.098 81.0401 175.388 80.6155 175.832L78.8666 174.581C79.5648 173.791 80.402 173.274 81.3784 173.031C82.3527 172.794 83.3376 172.837 84.333 173.16ZM86.4157 179.21L85.9121 180.76L78.5794 178.378L79.083 176.827L86.4157 179.21Z" fill="white"/>
<path d="M79.6234 172.023L71.9263 176.267L72.9322 184.775L70.6546 183.606L69.9704 177.252L64.4271 180.409L62.1407 179.236L69.6399 175.093L68.6095 166.37L70.8871 167.539L71.5915 174.094L77.337 170.85L79.6234 172.023Z" fill="white"/>
<path d="M69.1445 166.688L60.8449 169.58L60.4099 178.137L58.3606 176.602L58.7514 170.224L52.7572 172.407L50.6999 170.867L58.7876 168.04L59.2344 159.268L61.2837 160.802L60.8791 167.382L67.0873 165.147L69.1445 166.688Z" fill="white"/>
<path d="M41.1746 133.996L26.0336 133.876L25.1259 131.006L37.4442 122.202L38.0986 124.271L26.8701 132.343L26.7072 131.828L40.5202 131.927L41.1746 133.996ZM37.3431 132.659L35.4743 133.25L33.2065 126.08L35.0753 125.489L37.3431 132.659Z" fill="white"/>
<path d="M36.8542 115.917C36.9928 116.941 36.8613 117.834 36.4597 118.595C36.0515 119.356 35.4454 119.973 34.6415 120.445C33.8375 120.917 32.9004 121.226 31.8302 121.371C30.7599 121.515 29.775 121.47 28.8754 121.236C27.9749 120.994 27.2337 120.563 26.6518 119.942C26.0624 119.316 25.6993 118.497 25.5625 117.486C25.4266 116.482 25.5572 115.583 25.9543 114.789C26.344 113.99 26.9381 113.334 27.7366 112.822C28.5286 112.312 29.463 111.983 30.5399 111.837C31.6101 111.693 32.6015 111.76 33.514 112.04C34.4189 112.315 35.1684 112.782 35.7622 113.442C36.3551 114.095 36.7191 114.92 36.8542 115.917ZM41.9949 120.348L26.5358 122.44L26.2864 120.597L33.9861 119.555L33.954 119.317L41.7132 118.267L41.9949 120.348ZM35.0201 116.458C34.9307 115.798 34.6885 115.275 34.2934 114.892C33.8975 114.501 33.4011 114.239 32.8044 114.104C32.2001 113.964 31.5445 113.942 30.8376 114.037C30.1373 114.132 29.5179 114.327 28.9792 114.622C28.4397 114.91 28.0314 115.299 27.7544 115.787C27.4774 116.275 27.3854 116.863 27.4784 117.55C27.566 118.197 27.797 118.711 28.1713 119.091C28.5448 119.464 29.0294 119.715 29.6253 119.842C30.2203 119.964 30.8877 119.974 31.6276 119.874C32.3676 119.774 33.0082 119.586 33.5495 119.311C34.0908 119.036 34.4943 118.662 34.7599 118.189C35.0255 117.716 35.1122 117.139 35.0201 116.458Z" fill="white"/>
<path d="M36.2657 104.381C36.2345 105.454 35.9738 106.39 35.4836 107.189C34.987 107.982 34.3123 108.592 33.4595 109.021C32.6002 109.443 31.6141 109.638 30.5012 109.605C29.3217 109.571 28.3052 109.321 27.4517 108.856C26.5984 108.384 25.9468 107.745 25.4967 106.938C25.0467 106.132 24.8369 105.202 24.8676 104.149C24.8996 103.049 25.1834 102.121 25.719 101.363C26.248 100.604 26.9878 100.049 27.9384 99.6964C28.8893 99.3372 30.0099 99.2165 31.3004 99.334L31.2396 101.423L30.4799 101.401C29.2267 101.378 28.2935 101.591 27.6801 102.04C27.067 102.482 26.7467 103.177 26.7191 104.123C26.6887 105.169 26.9957 105.965 27.6401 106.511C28.2845 107.056 29.2297 107.347 30.4759 107.383C31.662 107.418 32.5893 107.182 33.2577 106.674C33.9194 106.166 34.2647 105.416 34.2936 104.423C34.3126 103.77 34.1824 103.203 33.903 102.721C33.617 102.233 33.2014 101.847 32.6561 101.564L33.3654 99.5342C34.3195 99.9821 35.0506 100.64 35.5589 101.509C36.0605 102.377 36.2961 103.334 36.2657 104.381ZM31.0458 108.08L29.4165 108.033L29.6408 100.326L31.2701 100.374L31.0458 108.08Z" fill="white"/>
<path d="M36.032 99.3167L29.8058 93.1129L21.9181 96.4573L22.4038 93.9438L28.3127 91.5106L23.7317 87.0709L24.2192 84.5476L30.2933 90.5896L38.3805 87.1615L37.8949 89.6751L31.7982 92.184L36.5195 96.7934L36.032 99.3167Z" fill="white"/>
<path d="M38.1843 87.7702L33.0647 80.6259L24.734 82.6258L25.6269 80.2266L31.8558 78.7995L28.0684 73.6662L28.9648 71.2576L33.9611 78.2173L42.5024 76.1677L41.6094 78.5669L35.1828 80.0378L39.0807 85.3616L38.1843 87.7702Z" fill="white"/>
<path d="M61.5798 51.7303L57.4339 37.1675L59.9324 35.4889L71.8476 44.8318L70.0464 46.042L59.141 37.5386L59.5892 37.2374L63.381 50.5201L61.5798 51.7303ZM61.7844 47.6774L60.6913 46.0505L66.9334 41.8568L68.0264 43.4837L61.7844 47.6774Z" fill="white"/>
<path d="M77.6727 42.4803C76.7293 42.902 75.8361 43.0275 74.993 42.8567C74.1471 42.6798 73.3844 42.2722 72.7048 41.634C72.0252 40.9958 71.465 40.1837 71.0243 39.1977C70.5835 38.2117 70.349 37.2541 70.3206 36.3248C70.2983 35.3927 70.503 34.56 70.9346 33.8267C71.3696 33.0846 72.0527 32.5054 72.9839 32.0891C73.909 31.6756 74.8084 31.5474 75.6819 31.7046C76.5588 31.853 77.3553 32.2382 78.0715 32.8601C78.7849 33.4759 79.3633 34.2798 79.8068 35.2719C80.2475 36.2579 80.4621 37.2281 80.4506 38.1825C80.4425 39.1282 80.2057 39.9789 79.7403 40.7346C79.2809 41.4876 78.5917 42.0695 77.6727 42.4803ZM74.8713 48.6617L68.5051 34.4198L70.2032 33.6608L73.3741 40.7543L73.5932 40.6564L76.7885 47.8047L74.8713 48.6617ZM76.6366 40.8732C77.2453 40.6012 77.678 40.2215 77.9349 39.7343C78.1978 39.2443 78.3097 38.6941 78.2705 38.0836C78.2346 37.4643 78.0711 36.8291 77.78 36.1778C77.4916 35.5327 77.13 34.9933 76.6952 34.5597C76.2665 34.1233 75.7789 33.8411 75.2323 33.713C74.6858 33.5848 74.096 33.6622 73.4631 33.9452C72.8666 34.2118 72.4389 34.5782 72.18 35.0445C71.9271 35.508 71.8234 36.0437 71.8687 36.6515C71.9201 37.2565 72.0981 37.8998 72.4028 38.5815C72.7075 39.2632 73.0682 39.8249 73.4847 40.2667C73.9013 40.7085 74.374 40.9901 74.9029 41.1115C75.4318 41.2329 76.0097 41.1535 76.6366 40.8732Z" fill="white"/>
<path d="M88.6909 38.5846C87.6532 38.8586 86.6815 38.8738 85.776 38.6302C84.8752 38.3785 84.0985 37.9044 83.4457 37.208C82.7977 36.5034 82.3316 35.6128 82.0474 34.5364C81.7462 33.3955 81.6977 32.3499 81.9019 31.3996C82.1125 30.4477 82.5409 29.6416 83.1872 28.9814C83.8334 28.3213 84.6657 27.8567 85.6842 27.5878C86.7477 27.307 87.7189 27.3161 88.5976 27.615C89.4747 27.9075 90.2169 28.4597 90.8242 29.2715C91.4381 30.0817 91.8714 31.1222 92.1242 32.3931L90.1034 32.9266L89.9094 32.1918C89.5766 30.9834 89.108 30.1487 88.5036 29.6877C87.9057 29.225 87.1491 29.1145 86.2338 29.3561C85.2218 29.6233 84.5454 30.1432 84.2047 30.9158C83.8639 31.6883 83.8527 32.6773 84.1709 33.8827C84.4738 35.03 84.9633 35.8523 85.6393 36.3496C86.3136 36.8404 87.1309 36.959 88.0914 36.7054C88.723 36.5386 89.2303 36.253 89.613 35.8486C90.0006 35.436 90.2526 34.9282 90.3692 34.3251L92.5172 34.4303C92.3579 35.4721 91.9338 36.3598 91.2448 37.0933C90.5542 37.8203 89.7029 38.3174 88.6909 38.5846ZM83.664 34.6267L83.248 33.0507L90.7025 31.0826L91.1186 32.6586L83.664 34.6267Z" fill="white"/>
<path d="M93.2564 36.9506L97.4394 29.2205L91.9951 22.6054L94.5431 22.3582L98.5525 27.3342L101.51 21.6821L104.068 21.4339L99.9974 28.9723L105.579 35.755L103.031 36.0022L98.8953 30.8676L95.8144 36.7024L93.2564 36.9506Z" fill="white"/>
<path d="M105.077 35.7382L110.494 28.8167L106.233 21.3841L108.787 21.5666L111.907 27.1432L115.769 22.0655L118.332 22.2487L113.058 28.9999L117.426 36.6206L114.872 36.4382L111.654 30.6841L107.641 35.9214L105.077 35.7382Z" fill="white"/>
<path d="M146.318 47.965L159.13 39.8949L161.443 41.8212L155.823 55.8813L154.156 54.4926L159.253 41.6375L159.668 41.9831L147.986 49.3537L146.318 47.965ZM150.265 47.0228L151.52 45.5167L157.298 50.3292L156.044 51.8353L150.265 47.0228Z" fill="white"/>
<path d="M159.776 60.8702C159.107 60.0827 158.737 59.2604 158.664 58.4032C158.597 57.5417 158.775 56.6953 159.197 55.8641C159.619 55.0329 160.242 54.2677 161.065 53.5684C161.888 52.8691 162.742 52.3757 163.626 52.0881C164.514 51.8056 165.371 51.7689 166.196 51.9778C167.03 52.1875 167.778 52.681 168.438 53.4583C169.094 54.2306 169.469 55.058 169.563 55.9406C169.666 56.824 169.52 57.6965 169.123 58.5582C168.732 59.4155 168.122 60.196 167.294 60.8996C166.471 61.5989 165.6 62.0767 164.68 62.333C163.77 62.5901 162.887 62.6011 162.031 62.366C161.18 62.1359 160.428 61.6373 159.776 60.8702ZM153.058 59.9125L164.946 49.8117L166.15 51.2292L160.229 56.2602L160.384 56.4431L154.417 61.5129L153.058 59.9125ZM161.029 59.4254C161.461 59.9335 161.946 60.2426 162.486 60.3526C163.03 60.4678 163.589 60.4211 164.164 60.2124C164.749 60.0045 165.313 59.6696 165.857 59.2078C166.395 58.7502 166.812 58.252 167.106 57.7131C167.405 57.1793 167.539 56.6321 167.509 56.0716C167.479 55.5111 167.239 54.9666 166.791 54.4382C166.368 53.9403 165.896 53.6324 165.376 53.5145C164.86 53.4016 164.317 53.452 163.746 53.6657C163.18 53.8846 162.612 54.2357 162.043 54.7191C161.474 55.2026 161.036 55.7062 160.728 56.2298C160.421 56.7534 160.283 57.2861 160.314 57.8279C160.346 58.3696 160.584 58.9021 161.029 59.4254Z" fill="white"/>
<path d="M166.549 70.2507C165.993 69.3325 165.704 68.4046 165.682 67.4672C165.669 66.532 165.905 65.653 166.388 64.8302C166.881 64.0096 167.604 63.3111 168.556 62.7345C169.566 62.1235 170.555 61.7817 171.525 61.7094C172.497 61.6427 173.392 61.8261 174.207 62.2597C175.023 62.6932 175.704 63.3605 176.249 64.2616C176.819 65.2027 177.084 66.1369 177.046 67.0643C177.013 67.9882 176.692 68.8561 176.085 69.668C175.481 70.4855 174.605 71.195 173.457 71.7963L172.375 70.0083L173.025 69.6148C174.091 68.9543 174.759 68.2691 175.031 67.5592C175.306 66.855 175.198 66.0979 174.708 65.2881C174.166 64.3927 173.476 63.8906 172.639 63.7819C171.802 63.6731 170.85 63.9415 169.783 64.5871C168.768 65.2016 168.117 65.9033 167.831 66.6922C167.551 67.4776 167.668 68.2952 168.182 69.145C168.52 69.7039 168.938 70.1098 169.434 70.3629C169.939 70.6181 170.497 70.7166 171.109 70.6581L171.614 72.7485C170.57 72.8897 169.598 72.7335 168.7 72.2797C167.808 71.8224 167.091 71.1461 166.549 70.2507ZM168.926 64.3109L170.321 63.4668L174.313 70.0625L172.919 70.9066L168.926 64.3109Z" fill="white"/>
<path d="M169.473 74.2968L178.071 76.1206L182.875 69.0265L183.833 71.4003L180.196 76.6542L186.454 77.8913L187.416 80.2744L179.033 78.5037L174.108 85.7765L173.15 83.4027L176.904 77.9832L170.435 76.6799L169.473 74.2968Z" fill="white"/>
<path d="M173.945 85.1505L182.122 88.3748L188.035 82.1753L188.586 84.6752L184.128 89.2532L190.094 91.5109L190.648 94.0205L182.675 90.8844L176.612 97.2398L176.061 94.74L180.661 90.018L174.499 87.6602L173.945 85.1505Z" fill="white"/>
</svg>
